<svg xmlns="http://www.w3.org/2000/svg" version="1.1" xmlns:xlink="http://www.w3.org/1999/xlink" xmlns:svgjs="http://svgjs.dev/svgjs" width="1440" height="680" preserveAspectRatio="none" viewBox="0 0 1440 680"><g mask="url(&quot;#SvgjsMask3427&quot;)" fill="none"><rect width="1440" height="680" x="0" y="0" fill="url(&quot;#SvgjsLinearGradient3428&quot;)"></rect><path d="M1440 0L805.77 0L1440 61.22z" fill="rgba(255, 255, 255, .1)"></path><path d="M805.77 0L1440 61.22L1440 77.44L531.12 0z" fill="rgba(255, 255, 255, .075)"></path><path d="M531.12 0L1440 77.44L1440 125.4L248.09000000000003 0z" fill="rgba(255, 255, 255, .05)"></path><path d="M248.09000000000015 0L1440 125.4L1440 376.21000000000004L75.40000000000015 0z" fill="rgba(255, 255, 255, .025)"></path><path d="M0 680L411.86 680L0 580.16z" fill="rgba(0, 0, 0, .1)"></path><path d="M0 580.16L411.86 680L911.7 680L0 501.31999999999994z" fill="rgba(0, 0, 0, .075)"></path><path d="M0 501.32L911.7 680L1191.95 680L0 472.71999999999997z" fill="rgba(0, 0, 0, .05)"></path><path d="M0 472.72L1191.95 680L1248.54 680L0 266.94000000000005z" fill="rgba(0, 0, 0, .025)"></path></g><defs><mask id="SvgjsMask3427"><rect width="1440" height="680" fill="#ffffff"></rect></mask><linearGradient x1="13.19%" y1="-27.94%" x2="86.81%" y2="127.94%" gradientUnits="userSpaceOnUse" id="SvgjsLinearGradient3428"><stop stop-color="rgba(14, 42, 71, 1)" offset="0"></stop><stop stop-color="rgba(238, 246, 255, 1)" offset="0"></stop></linearGradient></defs></svg>